<svg xmlns="http://www.w3.org/2000/svg" xmlns:xlink="http://www.w3.org/1999/xlink" width="2152.5" height="1128" viewBox="0 0 2152.5 1128"><defs><linearGradient id="a" x1="0.5" x2="0.5" y2="1" gradientUnits="objectBoundingBox"><stop offset="0" stop-color="#fff"/><stop offset="1" stop-color="#f5f5f5"/></linearGradient></defs><path d="M0,0H2112a0,0,0,0,1,0,0V1034a6,6,0,0,1-6,6H6a6,6,0,0,1-6-6V0A0,0,0,0,1,0,0Z" transform="translate(0 88)" fill="#fff"/><g transform="translate(-3878 -2153)"><rect width="1139" height="48" rx="6" transform="translate(3991 2313)" fill="#eee"/><rect width="627" height="48" rx="6" transform="translate(3991 2393)" fill="#eee"/><rect width="439" height="48" rx="6" transform="translate(3991 2473)" fill="#eee"/><rect width="319" height="48" rx="6" transform="translate(3991 2553)" fill="#eee"/><rect width="287" height="48" rx="6" transform="translate(3991 2633)" fill="#eee"/><rect width="203" height="48" rx="6" transform="translate(3991 2713)" fill="#eee"/><rect width="159" height="48" rx="6" transform="translate(3991 2793)" fill="#eee"/><rect width="135" height="48" rx="6" transform="translate(3991 2873)" fill="#eee"/><rect width="111" height="48" rx="6" transform="translate(3991 2953)" fill="#eee"/><rect width="99" height="48" rx="6" transform="translate(3991 3033)" fill="#eee"/></g><g transform="translate(-3878 -2153)"><path d="M14.547,21.891h2.828v3.047H14.547V30h-3.8V24.938H.922L.813,22.625,10.625,7.25h3.922Zm-9.75,0H10.75v-9.5l-.281.5ZM31.7,7.141v3.141h-.469a7.537,7.537,0,0,0-5.094,1.75,7.323,7.323,0,0,0-2.266,4.828,6.165,6.165,0,0,1,4.672-1.922A5.823,5.823,0,0,1,33.3,17.063a8.369,8.369,0,0,1,1.742,5.484,7.824,7.824,0,0,1-2.039,5.617,7.039,7.039,0,0,1-5.352,2.148A6.875,6.875,0,0,1,22.133,27.8,9.9,9.9,0,0,1,20.016,21.2v-1.3q0-5.984,2.914-9.375t8.383-3.391ZM27.625,18a4,4,0,0,0-2.289.7,4.11,4.11,0,0,0-1.523,1.875v1.156a6.811,6.811,0,0,0,1.063,4.023,3.24,3.24,0,0,0,2.75,1.492A3.2,3.2,0,0,0,30.3,25.984a5.27,5.27,0,0,0,.984-3.328,5.346,5.346,0,0,0-1-3.359A3.188,3.188,0,0,0,27.625,18ZM38.859,35.125l-2.047-1.219a11.041,11.041,0,0,0,1.242-2.477,7.39,7.39,0,0,0,.352-2.148V26.328h3.422l-.016,2.734a7.621,7.621,0,0,1-.836,3.32A8.248,8.248,0,0,1,38.859,35.125ZM55.875,20.484a6.205,6.205,0,0,1-9.234-.086,8.252,8.252,0,0,1-1.781-5.523,9.055,9.055,0,0,1,.906-4.078,6.758,6.758,0,0,1,2.578-2.844,7.315,7.315,0,0,1,3.875-1.016A6.572,6.572,0,0,1,57.672,9.5a10.793,10.793,0,0,1,2.016,6.859v1.063q0,6.156-2.781,9.391t-8.3,3.281h-.453V26.953H48.7a7.775,7.775,0,0,0,5.156-1.617A6.741,6.741,0,0,0,55.875,20.484Zm-3.656-.953a3.832,3.832,0,0,0,2.141-.656,4.324,4.324,0,0,0,1.547-1.812V15.578a7.127,7.127,0,0,0-1.031-4.047A3.107,3.107,0,0,0,52.2,10a3.07,3.07,0,0,0-2.617,1.352,5.681,5.681,0,0,0-.977,3.414,5.611,5.611,0,0,0,.984,3.453A3.118,3.118,0,0,0,52.219,19.531Zm10.922-7.906a4.566,4.566,0,0,1,1.328-3.383,5.289,5.289,0,0,1,6.992,0,4.68,4.68,0,0,1,1.32,3.461v1.125a4.534,4.534,0,0,1-1.32,3.359A4.716,4.716,0,0,1,67.984,17.5a4.865,4.865,0,0,1-3.477-1.289,4.55,4.55,0,0,1-1.367-3.477Zm2.656,1.2a2.506,2.506,0,0,0,.6,1.747,2.035,2.035,0,0,0,1.586.666,1.993,1.993,0,0,0,1.563-.666,2.62,2.62,0,0,0,.594-1.809V11.616a2.535,2.535,0,0,0-.6-1.755,2.024,2.024,0,0,0-1.586-.674,1.966,1.966,0,0,0-1.57.681,2.655,2.655,0,0,0-.586,1.794Zm8.281,11.6a4.472,4.472,0,0,1,1.359-3.391,5.3,5.3,0,0,1,6.945,0,4.623,4.623,0,0,1,1.352,3.5v1.109a4.57,4.57,0,0,1-1.3,3.352,4.688,4.688,0,0,1-3.492,1.32,4.827,4.827,0,0,1-3.523-1.3,4.6,4.6,0,0,1-1.336-3.445Zm2.656,1.2a2.492,2.492,0,0,0,.617,1.742,2.045,2.045,0,0,0,1.586.68,1.983,1.983,0,0,0,1.57-.648,2.666,2.666,0,0,0,.57-1.82V24.406a2.469,2.469,0,0,0-.609-1.75,2.2,2.2,0,0,0-3.133,0,2.581,2.581,0,0,0-.6,1.813ZM68.766,28.3l-1.953-1.125L77.922,9.391l1.953,1.125Z" transform="translate(5886 2318)" fill="#1269d3"/><path d="M11.984,30H8.2V11.723l-5.578,1.9V10.438L11.5,7.172h.484Zm20.75-8.109h2.828v3.047H32.734V30h-3.8V24.938H19.109L19,22.625,28.813,7.25h3.922Zm-9.75,0h5.953v-9.5l-.281.5ZM38.859,35.125l-2.047-1.219a11.041,11.041,0,0,0,1.242-2.477,7.39,7.39,0,0,0,.352-2.148V26.328h3.422l-.016,2.734a7.621,7.621,0,0,1-.836,3.32A8.248,8.248,0,0,1,38.859,35.125Zm21.078-14.7q0,4.906-1.836,7.4a6.484,6.484,0,0,1-5.586,2.492,6.57,6.57,0,0,1-5.555-2.43q-1.867-2.43-1.914-7.2V16.75q0-4.906,1.836-7.359a6.544,6.544,0,0,1,5.6-2.453,6.581,6.581,0,0,1,5.57,2.391q1.836,2.391,1.883,7.156Zm-3.8-4.25a9.626,9.626,0,0,0-.875-4.7A3.344,3.344,0,0,0,49.75,11.4a8.9,8.9,0,0,0-.922,4.414v5.156a9.875,9.875,0,0,0,.891,4.75,2.992,2.992,0,0,0,2.8,1.563,2.939,2.939,0,0,0,2.7-1.445,9.291,9.291,0,0,0,.922-4.523Zm7-4.547a4.566,4.566,0,0,1,1.328-3.383,5.289,5.289,0,0,1,6.992,0,4.68,4.68,0,0,1,1.32,3.461v1.125a4.534,4.534,0,0,1-1.32,3.359A4.716,4.716,0,0,1,67.984,17.5a4.865,4.865,0,0,1-3.477-1.289,4.55,4.55,0,0,1-1.367-3.477Zm2.656,1.2a2.506,2.506,0,0,0,.6,1.747,2.035,2.035,0,0,0,1.586.666,1.993,1.993,0,0,0,1.563-.666,2.62,2.62,0,0,0,.594-1.809V11.616a2.535,2.535,0,0,0-.6-1.755,2.024,2.024,0,0,0-1.586-.674,1.966,1.966,0,0,0-1.57.681,2.655,2.655,0,0,0-.586,1.794Zm8.281,11.6a4.472,4.472,0,0,1,1.359-3.391,5.3,5.3,0,0,1,6.945,0,4.623,4.623,0,0,1,1.352,3.5v1.109a4.57,4.57,0,0,1-1.3,3.352,4.688,4.688,0,0,1-3.492,1.32,4.827,4.827,0,0,1-3.523-1.3,4.6,4.6,0,0,1-1.336-3.445Zm2.656,1.2a2.492,2.492,0,0,0,.617,1.742,2.045,2.045,0,0,0,1.586.68,1.983,1.983,0,0,0,1.57-.648,2.666,2.666,0,0,0,.57-1.82V24.406a2.469,2.469,0,0,0-.609-1.75,2.2,2.2,0,0,0-3.133,0,2.581,2.581,0,0,0-.6,1.813ZM68.766,28.3l-1.953-1.125L77.922,9.391l1.953,1.125Z" transform="translate(4534 2433)" fill="#1269d3"/><path d="M2.719,18.719,3.953,7.25H16.172v3.281H7.109l-.625,5.438a7.024,7.024,0,0,1,3.563-.906A6.338,6.338,0,0,1,15.1,17.141a8.235,8.235,0,0,1,1.8,5.594,7.58,7.58,0,0,1-2,5.523,7.3,7.3,0,0,1-5.484,2.055,7.645,7.645,0,0,1-5.18-1.773,6.411,6.411,0,0,1-2.227-4.68H5.688A4.01,4.01,0,0,0,6.875,26.4a3.612,3.612,0,0,0,2.531.883,3.264,3.264,0,0,0,2.727-1.25,5.4,5.4,0,0,0,.977-3.406,4.767,4.767,0,0,0-1.078-3.289,3.771,3.771,0,0,0-2.969-1.211,4.939,4.939,0,0,0-1.75.273,4.956,4.956,0,0,0-1.562,1.07ZM20.672,35.125l-2.047-1.219a11.041,11.041,0,0,0,1.242-2.477,7.39,7.39,0,0,0,.352-2.148V26.328h3.422l-.016,2.734a7.621,7.621,0,0,1-.836,3.32A8.248,8.248,0,0,1,20.672,35.125ZM38.734,7.141v3.141h-.469a7.537,7.537,0,0,0-5.094,1.75,7.323,7.323,0,0,0-2.266,4.828,6.165,6.165,0,0,1,4.672-1.922,5.823,5.823,0,0,1,4.758,2.125,8.369,8.369,0,0,1,1.742,5.484,7.824,7.824,0,0,1-2.039,5.617,7.039,7.039,0,0,1-5.352,2.148A6.875,6.875,0,0,1,29.164,27.8,9.9,9.9,0,0,1,27.047,21.2v-1.3q0-5.984,2.914-9.375t8.383-3.391ZM34.656,18a4,4,0,0,0-2.289.7,4.11,4.11,0,0,0-1.523,1.875v1.156a6.811,6.811,0,0,0,1.063,4.023,3.24,3.24,0,0,0,2.75,1.492,3.2,3.2,0,0,0,2.672-1.266,5.27,5.27,0,0,0,.984-3.328,5.346,5.346,0,0,0-1-3.359A3.188,3.188,0,0,0,34.656,18Zm10.3-6.375a4.566,4.566,0,0,1,1.328-3.383,5.289,5.289,0,0,1,6.992,0,4.68,4.68,0,0,1,1.32,3.461v1.125a4.534,4.534,0,0,1-1.32,3.359A4.716,4.716,0,0,1,49.8,17.5a4.865,4.865,0,0,1-3.477-1.289,4.55,4.55,0,0,1-1.367-3.477Zm2.656,1.2a2.506,2.506,0,0,0,.6,1.747,2.035,2.035,0,0,0,1.586.666,1.993,1.993,0,0,0,1.563-.666,2.62,2.62,0,0,0,.594-1.809V11.616a2.535,2.535,0,0,0-.6-1.755,2.024,2.024,0,0,0-1.586-.674,1.966,1.966,0,0,0-1.57.681,2.655,2.655,0,0,0-.586,1.794Zm8.281,11.6a4.472,4.472,0,0,1,1.359-3.391,5.3,5.3,0,0,1,6.945,0,4.623,4.623,0,0,1,1.352,3.5v1.109a4.57,4.57,0,0,1-1.3,3.352,4.688,4.688,0,0,1-3.492,1.32,4.827,4.827,0,0,1-3.523-1.3,4.6,4.6,0,0,1-1.336-3.445Zm2.656,1.2a2.492,2.492,0,0,0,.617,1.742,2.045,2.045,0,0,0,1.586.68,1.983,1.983,0,0,0,1.57-.648,2.666,2.666,0,0,0,.57-1.82V24.406a2.469,2.469,0,0,0-.609-1.75,2.2,2.2,0,0,0-3.133,0,2.581,2.581,0,0,0-.6,1.813ZM50.578,28.3l-1.953-1.125L59.734,9.391l1.953,1.125Z" transform="translate(4326 2478)" fill="#1269d3"/><path d="M14.547,21.891h2.828v3.047H14.547V30h-3.8V24.938H.922L.813,22.625,10.625,7.25h3.922Zm-9.75,0H10.75v-9.5l-.281.5ZM20.672,35.125l-2.047-1.219a11.041,11.041,0,0,0,1.242-2.477,7.39,7.39,0,0,0,.352-2.148V26.328h3.422l-.016,2.734a7.621,7.621,0,0,1-.836,3.32A8.248,8.248,0,0,1,20.672,35.125ZM31.313,16.891h2.313a4.138,4.138,0,0,0,2.773-.906,3.233,3.233,0,0,0,1.023-2.578,3.523,3.523,0,0,0-.852-2.523,3.427,3.427,0,0,0-2.6-.9,3.625,3.625,0,0,0-2.516.883,2.95,2.95,0,0,0-.984,2.3h-3.8a5.747,5.747,0,0,1,.93-3.187A6.246,6.246,0,0,1,30.2,7.742a8.449,8.449,0,0,1,3.727-.8,7.825,7.825,0,0,1,5.352,1.711,6,6,0,0,1,1.945,4.758,4.835,4.835,0,0,1-.977,2.883,6.124,6.124,0,0,1-2.523,2.039,5.582,5.582,0,0,1,2.852,2.016,5.519,5.519,0,0,1,.977,3.281,6.11,6.11,0,0,1-2.1,4.875,8.159,8.159,0,0,1-5.523,1.813,8.1,8.1,0,0,1-5.375-1.75,5.763,5.763,0,0,1-2.094-4.656h3.8a3.176,3.176,0,0,0,1.008,2.438,3.822,3.822,0,0,0,2.711.938,3.942,3.942,0,0,0,2.781-.937,3.517,3.517,0,0,0,1.016-2.719A3.553,3.553,0,0,0,36.7,20.859a4.543,4.543,0,0,0-3.156-.969H31.313Zm13.641-5.266a4.566,4.566,0,0,1,1.328-3.383,5.289,5.289,0,0,1,6.992,0,4.68,4.68,0,0,1,1.32,3.461v1.125a4.534,4.534,0,0,1-1.32,3.359A4.716,4.716,0,0,1,49.8,17.5a4.865,4.865,0,0,1-3.477-1.289,4.55,4.55,0,0,1-1.367-3.477Zm2.656,1.2a2.506,2.506,0,0,0,.6,1.747,2.035,2.035,0,0,0,1.586.666,1.993,1.993,0,0,0,1.563-.666,2.62,2.62,0,0,0,.594-1.809V11.616a2.535,2.535,0,0,0-.6-1.755,2.024,2.024,0,0,0-1.586-.674,1.966,1.966,0,0,0-1.57.681,2.655,2.655,0,0,0-.586,1.794Zm8.281,11.6a4.472,4.472,0,0,1,1.359-3.391,5.3,5.3,0,0,1,6.945,0,4.623,4.623,0,0,1,1.352,3.5v1.109a4.57,4.57,0,0,1-1.3,3.352,4.688,4.688,0,0,1-3.492,1.32,4.827,4.827,0,0,1-3.523-1.3,4.6,4.6,0,0,1-1.336-3.445Zm2.656,1.2a2.492,2.492,0,0,0,.617,1.742,2.045,2.045,0,0,0,1.586.68,1.983,1.983,0,0,0,1.57-.648,2.666,2.666,0,0,0,.57-1.82V24.406a2.469,2.469,0,0,0-.609-1.75,2.2,2.2,0,0,0-3.133,0,2.581,2.581,0,0,0-.6,1.813ZM50.578,28.3l-1.953-1.125L59.734,9.391l1.953,1.125Z" transform="translate(4190 2558)" fill="#1269d3"/><path d="M2.719,18.719,3.953,7.25H16.172v3.281H7.109l-.625,5.438a7.024,7.024,0,0,1,3.563-.906A6.338,6.338,0,0,1,15.1,17.141a8.235,8.235,0,0,1,1.8,5.594,7.58,7.58,0,0,1-2,5.523,7.3,7.3,0,0,1-5.484,2.055,7.645,7.645,0,0,1-5.18-1.773,6.411,6.411,0,0,1-2.227-4.68H5.688A4.01,4.01,0,0,0,6.875,26.4a3.612,3.612,0,0,0,2.531.883,3.264,3.264,0,0,0,2.727-1.25,5.4,5.4,0,0,0,.977-3.406,4.767,4.767,0,0,0-1.078-3.289,3.771,3.771,0,0,0-2.969-1.211,4.939,4.939,0,0,0-1.75.273,4.956,4.956,0,0,0-1.562,1.07ZM20.672,35.125l-2.047-1.219a11.041,11.041,0,0,0,1.242-2.477,7.39,7.39,0,0,0,.352-2.148V26.328h3.422l-.016,2.734a7.621,7.621,0,0,1-.836,3.32A8.248,8.248,0,0,1,20.672,35.125Zm7.266-16.406L29.172,7.25H41.391v3.281H32.328L31.7,15.969a7.024,7.024,0,0,1,3.563-.906,6.338,6.338,0,0,1,5.055,2.078,8.235,8.235,0,0,1,1.8,5.594,7.58,7.58,0,0,1-2,5.523,7.3,7.3,0,0,1-5.484,2.055,7.645,7.645,0,0,1-5.18-1.773,6.411,6.411,0,0,1-2.227-4.68h3.672A4.01,4.01,0,0,0,32.094,26.4a3.612,3.612,0,0,0,2.531.883,3.264,3.264,0,0,0,2.727-1.25,5.4,5.4,0,0,0,.977-3.406,4.767,4.767,0,0,0-1.078-3.289,3.771,3.771,0,0,0-2.969-1.211,4.147,4.147,0,0,0-3.312,1.344Zm17.016-7.094a4.566,4.566,0,0,1,1.328-3.383,5.289,5.289,0,0,1,6.992,0,4.68,4.68,0,0,1,1.32,3.461v1.125a4.534,4.534,0,0,1-1.32,3.359A4.716,4.716,0,0,1,49.8,17.5a4.865,4.865,0,0,1-3.477-1.289,4.55,4.55,0,0,1-1.367-3.477Zm2.656,1.2a2.506,2.506,0,0,0,.6,1.747,2.035,2.035,0,0,0,1.586.666,1.993,1.993,0,0,0,1.563-.666,2.62,2.62,0,0,0,.594-1.809V11.616a2.535,2.535,0,0,0-.6-1.755,2.024,2.024,0,0,0-1.586-.674,1.966,1.966,0,0,0-1.57.681,2.655,2.655,0,0,0-.586,1.794Zm8.281,11.6a4.472,4.472,0,0,1,1.359-3.391,5.3,5.3,0,0,1,6.945,0,4.623,4.623,0,0,1,1.352,3.5v1.109a4.57,4.57,0,0,1-1.3,3.352,4.688,4.688,0,0,1-3.492,1.32,4.827,4.827,0,0,1-3.523-1.3,4.6,4.6,0,0,1-1.336-3.445Zm2.656,1.2a2.492,2.492,0,0,0,.617,1.742,2.045,2.045,0,0,0,1.586.68,1.983,1.983,0,0,0,1.57-.648,2.666,2.666,0,0,0,.57-1.82V24.406a2.469,2.469,0,0,0-.609-1.75,2.2,2.2,0,0,0-3.133,0,2.581,2.581,0,0,0-.6,1.813ZM50.578,28.3l-1.953-1.125L59.734,9.391l1.953,1.125Z" transform="translate(4238 2638)" fill="#1269d3"/><path d="M6.094,16.891H8.406a4.138,4.138,0,0,0,2.773-.906A3.233,3.233,0,0,0,12.2,13.406a3.523,3.523,0,0,0-.852-2.523,3.427,3.427,0,0,0-2.6-.9,3.625,3.625,0,0,0-2.516.883,2.95,2.95,0,0,0-.984,2.3h-3.8a5.747,5.747,0,0,1,.93-3.187A6.246,6.246,0,0,1,4.977,7.742a8.449,8.449,0,0,1,3.727-.8,7.825,7.825,0,0,1,5.352,1.711A6,6,0,0,1,16,13.406a4.835,4.835,0,0,1-.977,2.883A6.124,6.124,0,0,1,12.5,18.328a5.582,5.582,0,0,1,2.852,2.016,5.519,5.519,0,0,1,.977,3.281,6.11,6.11,0,0,1-2.1,4.875A8.159,8.159,0,0,1,8.7,30.313a8.1,8.1,0,0,1-5.375-1.75,5.763,5.763,0,0,1-2.094-4.656h3.8a3.176,3.176,0,0,0,1.008,2.438,3.822,3.822,0,0,0,2.711.938,3.942,3.942,0,0,0,2.781-.937,3.517,3.517,0,0,0,1.016-2.719,3.553,3.553,0,0,0-1.062-2.766,4.543,4.543,0,0,0-3.156-.969H6.094ZM20.672,35.125l-2.047-1.219a11.041,11.041,0,0,0,1.242-2.477,7.39,7.39,0,0,0,.352-2.148V26.328h3.422l-.016,2.734a7.621,7.621,0,0,1-.836,3.32A8.248,8.248,0,0,1,20.672,35.125ZM42.219,30h-15.3V27.391L34.5,19.125a18.871,18.871,0,0,0,2.336-3.055,4.949,4.949,0,0,0,.7-2.461,3.739,3.739,0,0,0-.914-2.625,3.171,3.171,0,0,0-2.461-1A3.655,3.655,0,0,0,31.3,11.109a4.424,4.424,0,0,0-1.016,3.078h-3.8a7.441,7.441,0,0,1,.945-3.742,6.509,6.509,0,0,1,2.7-2.586,8.6,8.6,0,0,1,4.055-.922A7.7,7.7,0,0,1,39.414,8.6a5.776,5.776,0,0,1,1.914,4.6,7.809,7.809,0,0,1-.961,3.57,20.3,20.3,0,0,1-3.148,4.242l-5.562,5.953H42.219Zm2.734-18.375a4.566,4.566,0,0,1,1.328-3.383,5.289,5.289,0,0,1,6.992,0,4.68,4.68,0,0,1,1.32,3.461v1.125a4.534,4.534,0,0,1-1.32,3.359A4.716,4.716,0,0,1,49.8,17.5a4.865,4.865,0,0,1-3.477-1.289,4.55,4.55,0,0,1-1.367-3.477Zm2.656,1.2a2.506,2.506,0,0,0,.6,1.747,2.035,2.035,0,0,0,1.586.666,1.993,1.993,0,0,0,1.563-.666,2.62,2.62,0,0,0,.594-1.809V11.616a2.535,2.535,0,0,0-.6-1.755,2.024,2.024,0,0,0-1.586-.674,1.966,1.966,0,0,0-1.57.681,2.655,2.655,0,0,0-.586,1.794Zm8.281,11.6a4.472,4.472,0,0,1,1.359-3.391,5.3,5.3,0,0,1,6.945,0,4.623,4.623,0,0,1,1.352,3.5v1.109a4.57,4.57,0,0,1-1.3,3.352,4.688,4.688,0,0,1-3.492,1.32,4.827,4.827,0,0,1-3.523-1.3,4.6,4.6,0,0,1-1.336-3.445Zm2.656,1.2a2.492,2.492,0,0,0,.617,1.742,2.045,2.045,0,0,0,1.586.68,1.983,1.983,0,0,0,1.57-.648,2.666,2.666,0,0,0,.57-1.82V24.406a2.469,2.469,0,0,0-.609-1.75,2.2,2.2,0,0,0-3.133,0,2.581,2.581,0,0,0-.6,1.813ZM50.578,28.3l-1.953-1.125L59.734,9.391l1.953,1.125Z" transform="translate(4158 2718)" fill="#1269d3"/><path d="M17,30H1.7V27.391l7.578-8.266a18.871,18.871,0,0,0,2.336-3.055,4.949,4.949,0,0,0,.7-2.461,3.739,3.739,0,0,0-.914-2.625,3.171,3.171,0,0,0-2.461-1,3.655,3.655,0,0,0-2.859,1.125,4.424,4.424,0,0,0-1.016,3.078h-3.8a7.441,7.441,0,0,1,.945-3.742,6.509,6.509,0,0,1,2.7-2.586,8.6,8.6,0,0,1,4.055-.922A7.7,7.7,0,0,1,14.2,8.6a5.776,5.776,0,0,1,1.914,4.6,7.809,7.809,0,0,1-.961,3.57A20.3,20.3,0,0,1,12,21.016L6.438,26.969H17Zm3.672,5.125-2.047-1.219a11.041,11.041,0,0,0,1.242-2.477,7.39,7.39,0,0,0,.352-2.148V26.328h3.422l-.016,2.734a7.621,7.621,0,0,1-.836,3.32A8.248,8.248,0,0,1,20.672,35.125ZM37.2,30H33.422V11.723l-5.578,1.9V10.438l8.875-3.266H37.2Zm7.75-18.375a4.566,4.566,0,0,1,1.328-3.383,5.289,5.289,0,0,1,6.992,0,4.68,4.68,0,0,1,1.32,3.461v1.125a4.534,4.534,0,0,1-1.32,3.359A4.716,4.716,0,0,1,49.8,17.5a4.865,4.865,0,0,1-3.477-1.289,4.55,4.55,0,0,1-1.367-3.477Zm2.656,1.2a2.506,2.506,0,0,0,.6,1.747,2.035,2.035,0,0,0,1.586.666,1.993,1.993,0,0,0,1.563-.666,2.62,2.62,0,0,0,.594-1.809V11.616a2.535,2.535,0,0,0-.6-1.755,2.024,2.024,0,0,0-1.586-.674,1.966,1.966,0,0,0-1.57.681,2.655,2.655,0,0,0-.586,1.794Zm8.281,11.6a4.472,4.472,0,0,1,1.359-3.391,5.3,5.3,0,0,1,6.945,0,4.623,4.623,0,0,1,1.352,3.5v1.109a4.57,4.57,0,0,1-1.3,3.352,4.688,4.688,0,0,1-3.492,1.32,4.827,4.827,0,0,1-3.523-1.3,4.6,4.6,0,0,1-1.336-3.445Zm2.656,1.2a2.492,2.492,0,0,0,.617,1.742,2.045,2.045,0,0,0,1.586.68,1.983,1.983,0,0,0,1.57-.648,2.666,2.666,0,0,0,.57-1.82V24.406a2.469,2.469,0,0,0-.609-1.75,2.2,2.2,0,0,0-3.133,0,2.581,2.581,0,0,0-.6,1.813ZM50.578,28.3l-1.953-1.125L59.734,9.391l1.953,1.125Z" transform="translate(4102 2798)" fill="#1269d3"/><path d="M11.984,30H8.2V11.723l-5.578,1.9V10.438L11.5,7.172h.484Zm8.688,5.125-2.047-1.219a11.041,11.041,0,0,0,1.242-2.477,7.39,7.39,0,0,0,.352-2.148V26.328h3.422l-.016,2.734a7.621,7.621,0,0,1-.836,3.32A8.248,8.248,0,0,1,20.672,35.125ZM42.063,9.359,32.969,30H28.984l9.078-19.7H26.3V7.25H42.063Zm2.891,2.266a4.566,4.566,0,0,1,1.328-3.383,5.289,5.289,0,0,1,6.992,0,4.68,4.68,0,0,1,1.32,3.461v1.125a4.534,4.534,0,0,1-1.32,3.359A4.716,4.716,0,0,1,49.8,17.5a4.865,4.865,0,0,1-3.477-1.289,4.55,4.55,0,0,1-1.367-3.477Zm2.656,1.2a2.506,2.506,0,0,0,.6,1.747,2.035,2.035,0,0,0,1.586.666,1.993,1.993,0,0,0,1.563-.666,2.62,2.62,0,0,0,.594-1.809V11.616a2.535,2.535,0,0,0-.6-1.755,2.024,2.024,0,0,0-1.586-.674,1.966,1.966,0,0,0-1.57.681,2.655,2.655,0,0,0-.586,1.794Zm8.281,11.6a4.472,4.472,0,0,1,1.359-3.391,5.3,5.3,0,0,1,6.945,0,4.623,4.623,0,0,1,1.352,3.5v1.109a4.57,4.57,0,0,1-1.3,3.352,4.688,4.688,0,0,1-3.492,1.32,4.827,4.827,0,0,1-3.523-1.3,4.6,4.6,0,0,1-1.336-3.445Zm2.656,1.2a2.492,2.492,0,0,0,.617,1.742,2.045,2.045,0,0,0,1.586.68,1.983,1.983,0,0,0,1.57-.648,2.666,2.666,0,0,0,.57-1.82V24.406a2.469,2.469,0,0,0-.609-1.75,2.2,2.2,0,0,0-3.133,0,2.581,2.581,0,0,0-.6,1.813ZM50.578,28.3l-1.953-1.125L59.734,9.391l1.953,1.125Z" transform="translate(4086 2878)" fill="#1269d3"/><path d="M11.984,30H8.2V11.723l-5.578,1.9V10.438L11.5,7.172h.484Zm8.688,5.125-2.047-1.219a11.041,11.041,0,0,0,1.242-2.477,7.39,7.39,0,0,0,.352-2.148V26.328h3.422l-.016,2.734a7.621,7.621,0,0,1-.836,3.32A8.248,8.248,0,0,1,20.672,35.125Zm7.266-16.406L29.172,7.25H41.391v3.281H32.328L31.7,15.969a7.024,7.024,0,0,1,3.563-.906,6.338,6.338,0,0,1,5.055,2.078,8.235,8.235,0,0,1,1.8,5.594,7.58,7.58,0,0,1-2,5.523,7.3,7.3,0,0,1-5.484,2.055,7.645,7.645,0,0,1-5.18-1.773,6.411,6.411,0,0,1-2.227-4.68h3.672A4.01,4.01,0,0,0,32.094,26.4a3.612,3.612,0,0,0,2.531.883,3.264,3.264,0,0,0,2.727-1.25,5.4,5.4,0,0,0,.977-3.406,4.767,4.767,0,0,0-1.078-3.289,3.771,3.771,0,0,0-2.969-1.211,4.147,4.147,0,0,0-3.312,1.344Zm17.016-7.094a4.566,4.566,0,0,1,1.328-3.383,5.289,5.289,0,0,1,6.992,0,4.68,4.68,0,0,1,1.32,3.461v1.125a4.534,4.534,0,0,1-1.32,3.359A4.716,4.716,0,0,1,49.8,17.5a4.865,4.865,0,0,1-3.477-1.289,4.55,4.55,0,0,1-1.367-3.477Zm2.656,1.2a2.506,2.506,0,0,0,.6,1.747,2.035,2.035,0,0,0,1.586.666,1.993,1.993,0,0,0,1.563-.666,2.62,2.62,0,0,0,.594-1.809V11.616a2.535,2.535,0,0,0-.6-1.755,2.024,2.024,0,0,0-1.586-.674,1.966,1.966,0,0,0-1.57.681,2.655,2.655,0,0,0-.586,1.794Zm8.281,11.6a4.472,4.472,0,0,1,1.359-3.391,5.3,5.3,0,0,1,6.945,0,4.623,4.623,0,0,1,1.352,3.5v1.109a4.57,4.57,0,0,1-1.3,3.352,4.688,4.688,0,0,1-3.492,1.32,4.827,4.827,0,0,1-3.523-1.3,4.6,4.6,0,0,1-1.336-3.445Zm2.656,1.2a2.492,2.492,0,0,0,.617,1.742,2.045,2.045,0,0,0,1.586.68,1.983,1.983,0,0,0,1.57-.648,2.666,2.666,0,0,0,.57-1.82V24.406a2.469,2.469,0,0,0-.609-1.75,2.2,2.2,0,0,0-3.133,0,2.581,2.581,0,0,0-.6,1.813ZM50.578,28.3l-1.953-1.125L59.734,9.391l1.953,1.125Z" transform="translate(4078 2956)" fill="#1269d3"/><path d="M11.984,30H8.2V11.723l-5.578,1.9V10.438L11.5,7.172h.484Zm8.688,5.125-2.047-1.219a11.041,11.041,0,0,0,1.242-2.477,7.39,7.39,0,0,0,.352-2.148V26.328h3.422l-.016,2.734a7.621,7.621,0,0,1-.836,3.32A8.248,8.248,0,0,1,20.672,35.125Zm7.266-16.406L29.172,7.25H41.391v3.281H32.328L31.7,15.969a7.024,7.024,0,0,1,3.563-.906,6.338,6.338,0,0,1,5.055,2.078,8.235,8.235,0,0,1,1.8,5.594,7.58,7.58,0,0,1-2,5.523,7.3,7.3,0,0,1-5.484,2.055,7.645,7.645,0,0,1-5.18-1.773,6.411,6.411,0,0,1-2.227-4.68h3.672A4.01,4.01,0,0,0,32.094,26.4a3.612,3.612,0,0,0,2.531.883,3.264,3.264,0,0,0,2.727-1.25,5.4,5.4,0,0,0,.977-3.406,4.767,4.767,0,0,0-1.078-3.289,3.771,3.771,0,0,0-2.969-1.211,4.147,4.147,0,0,0-3.312,1.344Zm17.016-7.094a4.566,4.566,0,0,1,1.328-3.383,5.289,5.289,0,0,1,6.992,0,4.68,4.68,0,0,1,1.32,3.461v1.125a4.534,4.534,0,0,1-1.32,3.359A4.716,4.716,0,0,1,49.8,17.5a4.865,4.865,0,0,1-3.477-1.289,4.55,4.55,0,0,1-1.367-3.477Zm2.656,1.2a2.506,2.506,0,0,0,.6,1.747,2.035,2.035,0,0,0,1.586.666,1.993,1.993,0,0,0,1.563-.666,2.62,2.62,0,0,0,.594-1.809V11.616a2.535,2.535,0,0,0-.6-1.755,2.024,2.024,0,0,0-1.586-.674,1.966,1.966,0,0,0-1.57.681,2.655,2.655,0,0,0-.586,1.794Zm8.281,11.6a4.472,4.472,0,0,1,1.359-3.391,5.3,5.3,0,0,1,6.945,0,4.623,4.623,0,0,1,1.352,3.5v1.109a4.57,4.57,0,0,1-1.3,3.352,4.688,4.688,0,0,1-3.492,1.32,4.827,4.827,0,0,1-3.523-1.3,4.6,4.6,0,0,1-1.336-3.445Zm2.656,1.2a2.492,2.492,0,0,0,.617,1.742,2.045,2.045,0,0,0,1.586.68,1.983,1.983,0,0,0,1.57-.648,2.666,2.666,0,0,0,.57-1.82V24.406a2.469,2.469,0,0,0-.609-1.75,2.2,2.2,0,0,0-3.133,0,2.581,2.581,0,0,0-.6,1.813ZM50.578,28.3l-1.953-1.125L59.734,9.391l1.953,1.125Z" transform="translate(4078 3038)" fill="#1269d3"/></g><g transform="translate(-3878 -2153)"><path d="M6,0H2146a6,6,0,0,1,6,6V88a0,0,0,0,1,0,0H0a0,0,0,0,1,0,0V6A6,6,0,0,1,6,0Z" transform="translate(3878 2153)" fill="url(#a)"/><line x2="2151.49" transform="translate(3878.51 2240.5)" fill="none" stroke="#e3e3e3" stroke-width="2"/><path d="M25.12,17.944H13.7V22.3h6.016c-.736,3.3-3.1,4.672-6.048,4.672-4.256,0-7.072-2.624-7.072-7.936S9.376,11.1,13.664,11.1a5.825,5.825,0,0,1,6.112,4.7l5.12-.864c-1.28-5.248-5.664-8.224-11.2-8.224-6.976,0-12.128,4.576-12.128,12.32,0,7.712,5.184,12.32,12.16,12.32,7.008,0,11.392-4.736,11.392-11.808Zm11.04-3.808c-5.056,0-8.8,3.392-8.8,8.608,0,5.184,3.744,8.608,8.8,8.608s8.8-3.424,8.8-8.608C44.96,17.528,41.216,14.136,36.16,14.136Zm0,4c2.4,0,4.064,1.7,4.064,4.608,0,2.88-1.664,4.576-4.064,4.576s-4.064-1.7-4.064-4.576C32.1,19.832,33.76,18.136,36.16,18.136Zm19.68-4c-5.056,0-8.8,3.392-8.8,8.608,0,5.184,3.744,8.608,8.8,8.608s8.8-3.424,8.8-8.608C64.64,17.528,60.9,14.136,55.84,14.136Zm0,4c2.4,0,4.064,1.7,4.064,4.608,0,2.88-1.664,4.576-4.064,4.576s-4.064-1.7-4.064-4.576C51.776,19.832,53.44,18.136,55.84,18.136Zm18.848-4c-4.672,0-7.968,3.424-7.968,8.608s3.3,8.608,7.968,8.608a6.37,6.37,0,0,0,4.672-1.76V31.96c0,2.368-1.568,3.552-3.872,3.552-2.112,0-3.488-.96-3.712-2.56l-4.64.16c.608,3.776,3.328,6.368,8.512,6.368,5.088,0,8.352-3.1,8.352-7.872V14.456H79.616v1.728A6.047,6.047,0,0,0,74.688,14.136Zm.768,4c2.3,0,3.9,1.568,3.9,4.224v.768c0,2.656-1.6,4.224-3.9,4.224-2.336,0-4-1.664-4-4.608S73.12,18.136,75.456,18.136ZM92.288,31V6.136H87.616V31Zm19.328-6.784V22.36c0-5.152-3.136-8.224-7.9-8.224-4.928,0-8.416,3.264-8.416,8.608,0,5.312,3.488,8.608,8.544,8.608,3.872,0,7.04-2.24,7.616-5.376l-4.7-.224c-.352,1.152-1.408,1.824-3.04,1.824a3.234,3.234,0,0,1-3.456-3.36Zm-7.936-6.432c2.112,0,3.136,1.312,3.232,3.328h-6.656A3.232,3.232,0,0,1,103.68,17.784ZM132.512,6.712c-7.008,0-12.16,4.576-12.16,12.32,0,7.712,5.184,12.32,12.192,12.32,5.792,0,10.432-3.424,11.36-9.024l-5.184-.448a5.988,5.988,0,0,1-6.336,5.088c-3.936,0-7.008-2.752-7.008-7.936,0-4.864,2.784-7.936,6.976-7.936a6.046,6.046,0,0,1,6.368,5.184l5.152-.448C143.008,10.168,138.3,6.712,132.512,6.712Zm33.536,4.7V7.064h-20.96v4.352h8.032V31h4.928V11.416ZM181.952,31h5.568l-5.088-9.408c2.368-1.152,3.84-3.52,3.84-6.848,0-4.928-3.168-7.68-7.712-7.68H168.32V31h4.96V22.392h4Zm-8.7-12.992V11.416h4.7a3.067,3.067,0,0,1,3.3,3.328,3.049,3.049,0,0,1-3.3,3.264Zm18.454-4.4a2.9,2.9,0,1,0,2.937,2.937A2.895,2.895,0,0,0,191.7,13.609Zm0,11.913a2.921,2.921,0,1,0,2.937,2.937A2.895,2.895,0,0,0,191.7,25.522Zm20.891-18.81c-5.728,0-8.512,3.392-8.512,7.328,0,4.64,3.584,5.888,7.9,6.976,3.2.8,4.928,1.472,4.928,3.3,0,1.952-1.568,2.752-3.776,2.752-2.592,0-4.48-1.472-4.576-3.648l-5.024.256c.064,4.96,4.064,7.68,9.6,7.68,4.8,0,8.8-2.24,8.8-7.328,0-4.256-3.232-5.792-8.128-7.04-3.3-.768-4.672-1.28-4.672-3.1,0-1.7,1.28-2.88,3.552-2.88s3.68,1.312,3.712,3.328l5.056-.256C221.329,9.464,217.777,6.712,212.593,6.712Zm14.624-.48a2.814,2.814,0,0,0-2.784,2.816,2.8,2.8,0,0,0,5.6,0A2.8,2.8,0,0,0,227.217,6.232ZM229.553,31V14.456h-4.672V31Zm9.632-12.512h3.9V14.456h-3.872l.032-5.472h-4.672l-.032,5.472h-3.04v4.032h3.008l-.032,7.264c-.032,3.84,2.432,5.568,6.016,5.568a15.559,15.559,0,0,0,2.592-.192v-4.16a6.908,6.908,0,0,1-1.44.16,2.282,2.282,0,0,1-2.5-2.5Zm21.888,5.728V22.36c0-5.152-3.136-8.224-7.9-8.224-4.928,0-8.416,3.264-8.416,8.608,0,5.312,3.488,8.608,8.544,8.608,3.872,0,7.04-2.24,7.616-5.376l-4.7-.224c-.352,1.152-1.408,1.824-3.04,1.824a3.234,3.234,0,0,1-3.456-3.36Zm-7.936-6.432c2.112,0,3.136,1.312,3.232,3.328h-6.656A3.232,3.232,0,0,1,253.137,17.784ZM268.721,31V6.136h-4.672V31Zm6.24-24.768a2.814,2.814,0,0,0-2.784,2.816,2.8,2.8,0,0,0,5.6,0A2.8,2.8,0,0,0,274.961,6.232ZM277.3,31V14.456h-4.672V31Zm12.768-16.864a5,5,0,0,0-4.448,2.016v-1.7H281.2V31h4.672V21.816a3.03,3.03,0,0,1,3.072-3.328c1.792,0,2.912,1.184,2.912,3.3V31h4.672V20.888C296.529,16.6,293.873,14.136,290.065,14.136Zm14.848,6.208V6.136h-4.672V31h4.672V26.616l1.472-1.6L310.705,31h5.664l-6.688-9.472,6.24-7.072h-5.664Zm18.88-6.208c-4.16,0-6.624,2.048-6.624,5.216,0,3.392,2.336,4.128,5.856,5.024,2.4.576,3.008.9,3.008,1.888,0,.96-.8,1.5-2.08,1.5-1.6,0-2.336-.832-2.4-2.048l-4.672.256c.352,3.456,2.816,5.376,7.04,5.376,4.32,0,6.784-2.144,6.784-5.5,0-3.008-2.336-4.032-5.632-4.9-1.984-.512-3.232-.672-3.232-1.824,0-.9.64-1.408,1.888-1.408a1.91,1.91,0,0,1,2.112,2.016l4.64-.256C330.193,16.408,327.985,14.136,323.793,14.136Z" transform="translate(3991 2180)" fill="#00285a"/></g><path d="M2331.894,974V894l8.42-80,15.784-80,43.9-80,91.895-80-47.737-80L2496,414l336-80,1315.825-80" transform="translate(-2160 -70)" fill="none" stroke="#1269d3" stroke-width="6"/><circle cx="8" cy="8" r="8" transform="translate(1980 176)" fill="#1269d3"/><circle cx="8" cy="8" r="8" transform="translate(664 256)" fill="#1269d3"/><circle cx="8" cy="8" r="8" transform="translate(328 336)" fill="#1269d3"/><circle cx="8" cy="8" r="8" transform="translate(277 416)" fill="#1269d3"/><circle cx="8" cy="8" r="8" transform="translate(324 496)" fill="#1269d3"/><circle cx="8" cy="8" r="8" transform="translate(232 576)" fill="#1269d3"/><circle cx="8" cy="8" r="8" transform="translate(188 656)" fill="#1269d3"/><circle cx="8" cy="8" r="8" transform="translate(172 736)" fill="#1269d3"/><circle cx="8" cy="8" r="8" transform="translate(164 816)" fill="#1269d3"/><circle cx="8" cy="8" r="8" transform="translate(164 896)" fill="#1269d3"/><path d="M2.311,27V7.094H7.93a9.046,9.046,0,0,1,4.594,1.148,7.767,7.767,0,0,1,3.083,3.268,10.636,10.636,0,0,1,1.1,4.867v1.271a10.673,10.673,0,0,1-1.087,4.936,7.645,7.645,0,0,1-3.1,3.254A9.622,9.622,0,0,1,7.82,27ZM4.936,9.24V24.854H7.7a6.009,6.009,0,0,0,4.724-1.888,7.8,7.8,0,0,0,1.688-5.378V16.424a7.926,7.926,0,0,0-1.593-5.275A5.668,5.668,0,0,0,8,9.24Zm24.473,16.3a5.372,5.372,0,0,1-4.334,1.736,4.6,4.6,0,0,1-3.6-1.374,5.947,5.947,0,0,1-1.251-4.067V12.207H22.75v9.557q0,3.363,2.734,3.363,2.9,0,3.855-2.16V12.207h2.529V27H29.463ZM42.861,14.477a7.58,7.58,0,0,0-1.244-.1A3.333,3.333,0,0,0,38.24,16.5V27H35.711V12.207h2.461l.041,1.709a3.938,3.938,0,0,1,3.527-1.982,2.584,2.584,0,0,1,1.121.191Zm8,10.732a3.643,3.643,0,0,0,2.365-.82,2.886,2.886,0,0,0,1.121-2.051h2.393a4.587,4.587,0,0,1-.875,2.42A5.763,5.763,0,0,1,53.71,26.59a6.213,6.213,0,0,1-2.851.684,6.094,6.094,0,0,1-4.806-2.017A8.032,8.032,0,0,1,44.27,19.74v-.424a8.906,8.906,0,0,1,.793-3.842,6.04,6.04,0,0,1,2.276-2.611,6.466,6.466,0,0,1,3.507-.93,5.933,5.933,0,0,1,4.136,1.49,5.326,5.326,0,0,1,1.757,3.869H54.346a3.486,3.486,0,0,0-1.087-2.358,3.381,3.381,0,0,0-2.413-.923A3.54,3.54,0,0,0,47.858,15.4a6.517,6.517,0,0,0-1.06,4.013v.479a6.387,6.387,0,0,0,1.053,3.938A3.557,3.557,0,0,0,50.859,25.209ZM62.111,14a5.378,5.378,0,0,1,4.375-2.064q4.689,0,4.73,5.291V27H68.688V17.211a3.405,3.405,0,0,0-.731-2.365,2.931,2.931,0,0,0-2.235-.766,3.65,3.65,0,0,0-2.16.656,4.456,4.456,0,0,0-1.449,1.723V27H59.582V6h2.529Zm21.506,9.078a1.862,1.862,0,0,0-.772-1.593,7.435,7.435,0,0,0-2.693-.978,12.734,12.734,0,0,1-3.049-.984,4.337,4.337,0,0,1-1.668-1.367,3.27,3.27,0,0,1-.54-1.887,3.837,3.837,0,0,1,1.538-3.076,6.007,6.007,0,0,1,3.931-1.258,6.181,6.181,0,0,1,4.081,1.3,4.125,4.125,0,0,1,1.565,3.322H83.467a2.283,2.283,0,0,0-.882-1.791,3.3,3.3,0,0,0-2.222-.752,3.458,3.458,0,0,0-2.16.6,1.894,1.894,0,0,0-.779,1.572,1.534,1.534,0,0,0,.725,1.381,8.915,8.915,0,0,0,2.618.889,13.642,13.642,0,0,1,3.069,1.012,4.477,4.477,0,0,1,1.743,1.415,3.479,3.479,0,0,1,.567,2.017,3.786,3.786,0,0,1-1.586,3.179,6.652,6.652,0,0,1-4.115,1.2,7.449,7.449,0,0,1-3.145-.629,5.114,5.114,0,0,1-2.14-1.757,4.234,4.234,0,0,1-.772-2.44h2.529a2.619,2.619,0,0,0,1.019,2.017,3.951,3.951,0,0,0,2.509.745,4.079,4.079,0,0,0,2.3-.581A1.785,1.785,0,0,0,83.617,23.076Zm11.758,2.133a3.643,3.643,0,0,0,2.365-.82,2.886,2.886,0,0,0,1.121-2.051h2.393a4.587,4.587,0,0,1-.875,2.42,5.763,5.763,0,0,1-2.153,1.832,6.213,6.213,0,0,1-2.851.684,6.094,6.094,0,0,1-4.806-2.017,8.032,8.032,0,0,1-1.784-5.517v-.424a8.906,8.906,0,0,1,.793-3.842,6.04,6.04,0,0,1,2.276-2.611,6.466,6.466,0,0,1,3.507-.93,5.933,5.933,0,0,1,4.136,1.49,5.326,5.326,0,0,1,1.757,3.869H98.861a3.486,3.486,0,0,0-1.087-2.358,3.381,3.381,0,0,0-2.413-.923A3.54,3.54,0,0,0,92.374,15.4a6.517,6.517,0,0,0-1.06,4.013v.479a6.387,6.387,0,0,0,1.053,3.938A3.557,3.557,0,0,0,95.375,25.209ZM106.627,14A5.378,5.378,0,0,1,111,11.934q4.689,0,4.73,5.291V27H113.2V17.211a3.405,3.405,0,0,0-.731-2.365,2.931,2.931,0,0,0-2.235-.766,3.65,3.65,0,0,0-2.16.656,4.456,4.456,0,0,0-1.449,1.723V27H104.1V6h2.529Zm15.285-1.791.082,1.859a5.391,5.391,0,0,1,4.43-2.133q4.689,0,4.73,5.291V27h-2.529V17.211a3.405,3.405,0,0,0-.731-2.365,2.931,2.931,0,0,0-2.235-.766,3.65,3.65,0,0,0-2.16.656,4.456,4.456,0,0,0-1.449,1.723V27H119.52V12.207ZM137.717,27h-2.529V12.207h2.529ZM134.982,8.283a1.51,1.51,0,0,1,.376-1.039,1.412,1.412,0,0,1,1.114-.424,1.434,1.434,0,0,1,1.121.424,1.494,1.494,0,0,1,.383,1.039,1.445,1.445,0,0,1-.383,1.025,1.46,1.46,0,0,1-1.121.41,1.437,1.437,0,0,1-1.114-.41A1.46,1.46,0,0,1,134.982,8.283Zm10.213.342v3.582h2.762v1.955H145.2v9.185a2.053,2.053,0,0,0,.369,1.335,1.554,1.554,0,0,0,1.258.445,6.124,6.124,0,0,0,1.2-.164V27a7.376,7.376,0,0,1-1.941.272,3.15,3.15,0,0,1-2.557-1.025,4.405,4.405,0,0,1-.861-2.912V14.162h-2.693V12.207h2.693V8.625Zm9.146,0v3.582H157.1v1.955h-2.762v9.185a2.053,2.053,0,0,0,.369,1.335,1.554,1.554,0,0,0,1.258.445,6.124,6.124,0,0,0,1.2-.164V27a7.376,7.376,0,0,1-1.941.272,3.15,3.15,0,0,1-2.557-1.025,4.405,4.405,0,0,1-.861-2.912V14.162h-2.693V12.207h2.693V8.625ZM162.8,27h-2.529V6H162.8Zm6.795,0H167.07V12.207H169.6ZM166.865,8.283a1.51,1.51,0,0,1,.376-1.039,1.412,1.412,0,0,1,1.114-.424,1.434,1.434,0,0,1,1.121.424,1.494,1.494,0,0,1,.383,1.039,1.445,1.445,0,0,1-.383,1.025,1.46,1.46,0,0,1-1.121.41,1.437,1.437,0,0,1-1.114-.41A1.46,1.46,0,0,1,166.865,8.283ZM179.58,25.209a3.643,3.643,0,0,0,2.365-.82,2.886,2.886,0,0,0,1.121-2.051h2.393a4.587,4.587,0,0,1-.875,2.42,5.763,5.763,0,0,1-2.153,1.832,6.213,6.213,0,0,1-2.851.684,6.094,6.094,0,0,1-4.806-2.017,8.032,8.032,0,0,1-1.784-5.517v-.424a8.906,8.906,0,0,1,.793-3.842,6.04,6.04,0,0,1,2.276-2.611,6.466,6.466,0,0,1,3.507-.93,5.933,5.933,0,0,1,4.136,1.49,5.326,5.326,0,0,1,1.757,3.869h-2.393a3.486,3.486,0,0,0-1.087-2.358,3.381,3.381,0,0,0-2.413-.923,3.54,3.54,0,0,0-2.987,1.388,6.517,6.517,0,0,0-1.06,4.013v.479a6.387,6.387,0,0,0,1.053,3.938A3.557,3.557,0,0,0,179.58,25.209ZM190.832,14a5.378,5.378,0,0,1,4.375-2.064q4.689,0,4.73,5.291V27h-2.529V17.211a3.405,3.405,0,0,0-.731-2.365,2.931,2.931,0,0,0-2.235-.766,3.65,3.65,0,0,0-2.16.656,4.456,4.456,0,0,0-1.449,1.723V27H188.3V6h2.529Zm19.031,13.275a6.463,6.463,0,0,1-4.895-1.976,7.332,7.332,0,0,1-1.887-5.284v-.465a8.877,8.877,0,0,1,.841-3.931,6.559,6.559,0,0,1,2.352-2.707,5.912,5.912,0,0,1,3.274-.978,5.54,5.54,0,0,1,4.484,1.9,8.228,8.228,0,0,1,1.6,5.441v1.053H205.611a5.258,5.258,0,0,0,1.278,3.534A4.018,4.018,0,0,0,210,25.209a4.405,4.405,0,0,0,2.27-.547,5.7,5.7,0,0,0,1.627-1.449l1.545,1.2A6.212,6.212,0,0,1,209.863,27.273Zm-.314-13.262a3.374,3.374,0,0,0-2.57,1.114,5.416,5.416,0,0,0-1.285,3.124h7.41v-.191a4.817,4.817,0,0,0-1.039-2.987A3.176,3.176,0,0,0,209.549,14.012Zm30.98,6.672a7.324,7.324,0,0,1-2.331,4.874,7.639,7.639,0,0,1-5.216,1.716,7.015,7.015,0,0,1-5.653-2.529,10.176,10.176,0,0,1-2.126-6.768V16.063a11.342,11.342,0,0,1,.991-4.881A7.4,7.4,0,0,1,229,7.948a7.823,7.823,0,0,1,4.211-1.128A7.193,7.193,0,0,1,238.3,8.591a7.412,7.412,0,0,1,2.229,4.9h-2.639a5.719,5.719,0,0,0-1.483-3.456,4.488,4.488,0,0,0-3.192-1.07,4.7,4.7,0,0,0-3.944,1.861,8.543,8.543,0,0,0-1.429,5.3v1.929a8.782,8.782,0,0,0,1.354,5.159,4.373,4.373,0,0,0,3.787,1.916,5.051,5.051,0,0,0,3.356-.991,5.5,5.5,0,0,0,1.552-3.452ZM257.469,9.24h-6.4V27h-2.611V9.24h-6.385V7.094h15.395Zm10.254,9.707h-4.676V27h-2.639V7.094H267a7.8,7.8,0,0,1,5.175,1.531,5.509,5.509,0,0,1,1.812,4.457,5.359,5.359,0,0,1-1,3.24,6,6,0,0,1-2.8,2.064l4.676,8.449V27h-2.816ZM263.047,16.8h4.033a4.549,4.549,0,0,0,3.11-1.014,3.427,3.427,0,0,0,1.155-2.712,3.609,3.609,0,0,0-1.1-2.835,4.66,4.66,0,0,0-3.179-1h-4.02Z" transform="translate(534 808)" fill="#111"/><path d="M16.953,20.684a7.324,7.324,0,0,1-2.331,4.874,7.639,7.639,0,0,1-5.216,1.716,7.015,7.015,0,0,1-5.653-2.529,10.176,10.176,0,0,1-2.126-6.768V16.063a11.342,11.342,0,0,1,.991-4.881,7.4,7.4,0,0,1,2.81-3.233A7.823,7.823,0,0,1,9.639,6.82a7.193,7.193,0,0,1,5.086,1.771,7.412,7.412,0,0,1,2.229,4.9H14.314a5.719,5.719,0,0,0-1.483-3.456,4.488,4.488,0,0,0-3.192-1.07,4.7,4.7,0,0,0-3.944,1.861,8.543,8.543,0,0,0-1.429,5.3v1.929a8.782,8.782,0,0,0,1.354,5.159,4.373,4.373,0,0,0,3.787,1.916,5.051,5.051,0,0,0,3.356-.991,5.5,5.5,0,0,0,1.552-3.452ZM33.893,9.24h-6.4V27H24.883V9.24H18.5V7.094H33.893Zm10.254,9.707H39.471V27H36.832V7.094h6.59A7.8,7.8,0,0,1,48.6,8.625a5.509,5.509,0,0,1,1.812,4.457,5.359,5.359,0,0,1-1,3.24,6,6,0,0,1-2.8,2.064l4.676,8.449V27H48.467ZM39.471,16.8H43.5a4.549,4.549,0,0,0,3.11-1.014,3.427,3.427,0,0,0,1.155-2.712,3.609,3.609,0,0,0-1.1-2.835,4.66,4.66,0,0,0-3.179-1h-4.02Zm27.412,1.326a12.343,12.343,0,0,1-4.915-2.386,4.558,4.558,0,0,1-1.538-3.493,4.815,4.815,0,0,1,1.88-3.89A7.471,7.471,0,0,1,67.2,6.82a8.155,8.155,0,0,1,3.657.793A6.014,6.014,0,0,1,73.343,9.8a5.594,5.594,0,0,1,.882,3.049H71.586A3.64,3.64,0,0,0,70.438,10,4.67,4.67,0,0,0,67.2,8.967a4.781,4.781,0,0,0-3.028.856A2.856,2.856,0,0,0,63.082,12.2a2.569,2.569,0,0,0,1.032,2.061A10.125,10.125,0,0,0,67.628,15.8a16.3,16.3,0,0,1,3.883,1.539A5.892,5.892,0,0,1,73.589,19.3a5.007,5.007,0,0,1,.677,2.639,4.651,4.651,0,0,1-1.887,3.876,8.044,8.044,0,0,1-5.045,1.456,9.357,9.357,0,0,1-3.828-.786,6.442,6.442,0,0,1-2.741-2.153,5.255,5.255,0,0,1-.964-3.1h2.639a3.428,3.428,0,0,0,1.333,2.851,5.613,5.613,0,0,0,3.562,1.046,5.16,5.16,0,0,0,3.186-.848,2.753,2.753,0,0,0,1.107-2.311A2.7,2.7,0,0,0,70.6,19.706,11.822,11.822,0,0,0,66.883,18.127ZM79.98,27H77.451V12.207H79.98ZM77.246,8.283a1.51,1.51,0,0,1,.376-1.039,1.412,1.412,0,0,1,1.114-.424,1.434,1.434,0,0,1,1.121.424,1.494,1.494,0,0,1,.383,1.039,1.445,1.445,0,0,1-.383,1.025,1.46,1.46,0,0,1-1.121.41,1.437,1.437,0,0,1-1.114-.41A1.46,1.46,0,0,1,77.246,8.283Zm10.213.342v3.582h2.762v1.955H87.459v9.185a2.053,2.053,0,0,0,.369,1.335,1.554,1.554,0,0,0,1.258.445,6.124,6.124,0,0,0,1.2-.164V27a7.376,7.376,0,0,1-1.941.272,3.15,3.15,0,0,1-2.557-1.025,4.405,4.405,0,0,1-.861-2.912V14.162H82.236V12.207H84.93V8.625ZM99.313,27.273A6.463,6.463,0,0,1,94.418,25.3a7.332,7.332,0,0,1-1.887-5.284v-.465a8.877,8.877,0,0,1,.841-3.931,6.559,6.559,0,0,1,2.352-2.707A5.912,5.912,0,0,1,99,11.934a5.54,5.54,0,0,1,4.484,1.9,8.228,8.228,0,0,1,1.6,5.441v1.053H95.061a5.258,5.258,0,0,0,1.278,3.534,4.018,4.018,0,0,0,3.11,1.347,4.405,4.405,0,0,0,2.27-.547,5.7,5.7,0,0,0,1.627-1.449l1.545,1.2A6.212,6.212,0,0,1,99.313,27.273ZM99,14.012a3.374,3.374,0,0,0-2.57,1.114,5.416,5.416,0,0,0-1.285,3.124h7.41v-.191a4.817,4.817,0,0,0-1.039-2.987A3.176,3.176,0,0,0,99,14.012ZM110.756,27h-2.529V6h2.529Zm6.795,0h-2.529V12.207h2.529ZM114.816,8.283a1.51,1.51,0,0,1,.376-1.039,1.412,1.412,0,0,1,1.114-.424,1.434,1.434,0,0,1,1.121.424,1.494,1.494,0,0,1,.383,1.039,1.445,1.445,0,0,1-.383,1.025,1.46,1.46,0,0,1-1.121.41,1.437,1.437,0,0,1-1.114-.41A1.46,1.46,0,0,1,114.816,8.283Zm9.174,3.924.082,1.859a5.391,5.391,0,0,1,4.43-2.133q4.689,0,4.73,5.291V27H130.7V17.211a3.405,3.405,0,0,0-.731-2.365,2.931,2.931,0,0,0-2.235-.766,3.65,3.65,0,0,0-2.16.656,4.456,4.456,0,0,0-1.449,1.723V27H121.6V12.207Zm17.186,7.943L139.59,21.8V27h-2.529V6h2.529V18.7l1.354-1.627,4.607-4.867h3.076l-5.756,6.18L149.3,27H146.33Zm18.676,2.926a1.862,1.862,0,0,0-.772-1.593,7.435,7.435,0,0,0-2.693-.978,12.734,12.734,0,0,1-3.049-.984,4.337,4.337,0,0,1-1.668-1.367,3.27,3.27,0,0,1-.54-1.887,3.837,3.837,0,0,1,1.538-3.076,6.007,6.007,0,0,1,3.931-1.258,6.181,6.181,0,0,1,4.081,1.3,4.125,4.125,0,0,1,1.565,3.322H159.7a2.283,2.283,0,0,0-.882-1.791,3.3,3.3,0,0,0-2.222-.752,3.458,3.458,0,0,0-2.16.6,1.894,1.894,0,0,0-.779,1.572,1.534,1.534,0,0,0,.725,1.381,8.915,8.915,0,0,0,2.618.889,13.642,13.642,0,0,1,3.069,1.012,4.477,4.477,0,0,1,1.743,1.415,3.479,3.479,0,0,1,.567,2.017,3.786,3.786,0,0,1-1.586,3.179,6.652,6.652,0,0,1-4.115,1.2,7.449,7.449,0,0,1-3.145-.629,5.114,5.114,0,0,1-2.14-1.757,4.234,4.234,0,0,1-.772-2.44h2.529a2.619,2.619,0,0,0,1.019,2.017,3.951,3.951,0,0,0,2.509.745,4.079,4.079,0,0,0,2.3-.581A1.785,1.785,0,0,0,159.852,23.076Z" transform="translate(534 863)" fill="#111"/><rect width="80" height="32" rx="4" transform="translate(428 810)" fill="#eee"/><line x2="80" transform="translate(428 882)" fill="none" stroke="#1269d3" stroke-width="6"/><circle cx="11.5" cy="11.5" r="11.5" transform="translate(457 870)" fill="#1269d3"/><g transform="translate(869)"><rect width="257" height="52" transform="translate(1011 1066)" fill="#fff"/><g transform="translate(1017.8 1041.823)"><path d="M87.056,45.443c0,3.458-3.332,6.665-9.683,6.665A18.539,18.539,0,0,1,69.2,50.221l1.509-2.641a14.128,14.128,0,0,0,6.79,1.7c3.018,0,4.9-1.257,4.9-3.269,0-1.509-1.132-2.515-3.71-3.018l-2.641-.629a7.92,7.92,0,0,1-4.778-2.515,4.5,4.5,0,0,1-1.006-3.018c0-3.647,3.458-6.162,8.425-6.162a15.572,15.572,0,0,1,7.859,2.012l-1.886,2.452a12.094,12.094,0,0,0-5.847-1.509c-2.452,0-4.024,1.132-4.024,2.829,0,1.32.88,1.949,3.269,2.578l2.955.692C84.541,40.413,87.056,42.3,87.056,45.443Zm26.533-5.91-2.955-.692c-2.452-.629-3.269-1.257-3.269-2.578,0-1.7,1.635-2.829,4.024-2.829a11.918,11.918,0,0,1,5.847,1.509l1.886-2.452a15.463,15.463,0,0,0-7.859-1.886c-4.967,0-8.425,2.515-8.425,6.162a4.29,4.29,0,0,0,1.006,3.018,7.909,7.909,0,0,0,4.841,2.515l2.641.629c2.578.566,3.71,1.509,3.71,3.018,0,2.075-1.823,3.269-4.9,3.269a14.822,14.822,0,0,1-6.728-1.7l-1.509,2.641a18.342,18.342,0,0,0,8.174,1.886c6.35,0,9.683-3.207,9.683-6.665C119.688,42.3,117.173,40.413,113.59,39.533ZM92.527,51.668h4.213V30.919H92.527Zm29.3-17.919h6.287V51.668h4.15V33.811h6.225l.566-2.892H121.889v2.829Zm60.8,6.539,6.287-9.431h-4.9l-3.9,6.476-3.961-6.413h-5.03l6.665,9.62L170.177,51.73h5.093l4.967-8.237,5.156,8.237h4.9ZM154.835,46.7l3.647,4.967h-4.9l-2.138-3.207a23.639,23.639,0,0,0-4.213-5.156,2.227,2.227,0,0,0-1.635-.629V51.73h-4.087V30.919h7.608c5.533,0,8.111,2.7,8.111,5.973a5.742,5.742,0,0,1-5.722,5.722h-.44A16.7,16.7,0,0,1,154.835,46.7Zm-3.018-7.293a3.256,3.256,0,0,0,1.132-2.515c0-2.138-1.383-3.207-5.03-3.207h-2.326v6.6h2.138a6.4,6.4,0,0,0,4.087-.88ZM162.946,51.73h4.213V30.919h-4.275Zm75.324,15.4L226.009,54.874a17.341,17.341,0,1,1,3.018-3.081l12.323,12.323ZM215.384,55.063a13.77,13.77,0,1,0-13.77-13.77,13.766,13.766,0,0,0,13.77,13.77Z" fill="#ddd"/></g></g><path d="M39.453,34.586,31.664,26.8a1.874,1.874,0,0,0-1.328-.547H29.063a16.243,16.243,0,1,0-2.812,2.813v1.273a1.874,1.874,0,0,0,.547,1.328l7.789,7.789a1.867,1.867,0,0,0,2.648,0l2.211-2.211A1.884,1.884,0,0,0,39.453,34.586ZM16.25,26.25a10,10,0,1,1,10-10A9.994,9.994,0,0,1,16.25,26.25Z" transform="translate(37 26)" fill="#1269d3"/><rect width="38" height="148" transform="translate(7 122)" fill="#fff"/><path d="M8.238,16.1H4.23V23H1.969V5.938H7.617A6.686,6.686,0,0,1,12.053,7.25a4.722,4.722,0,0,1,1.553,3.82,4.593,4.593,0,0,1-.861,2.777,5.142,5.142,0,0,1-2.4,1.77l4.008,7.242V23H11.941ZM4.23,14.258H7.688a3.9,3.9,0,0,0,2.666-.869,2.938,2.938,0,0,0,.99-2.325,3.094,3.094,0,0,0-.943-2.43,4,4,0,0,0-2.725-.857H4.23ZM24.246,23a4.554,4.554,0,0,1-.3-1.336,4.837,4.837,0,0,1-3.609,1.57,4.476,4.476,0,0,1-3.076-1.061,3.431,3.431,0,0,1-1.2-2.689,3.584,3.584,0,0,1,1.506-3.076,7.1,7.1,0,0,1,4.236-1.1h2.109v-1a2.435,2.435,0,0,0-.68-1.811,2.732,2.732,0,0,0-2-.674,3.161,3.161,0,0,0-1.945.586,1.727,1.727,0,0,0-.785,1.418h-2.18A2.992,2.992,0,0,1,16.986,12a4.6,4.6,0,0,1,1.828-1.4,6.15,6.15,0,0,1,2.537-.516,5.013,5.013,0,0,1,3.434,1.1A3.953,3.953,0,0,1,26.074,14.2v5.836a7.135,7.135,0,0,0,.445,2.777V23Zm-3.6-1.652a3.81,3.81,0,0,0,1.934-.527,3.19,3.19,0,0,0,1.324-1.371v-2.6h-1.7q-3.984,0-3.984,2.332a1.974,1.974,0,0,0,.68,1.594A2.612,2.612,0,0,0,20.648,21.348ZM31.523,10.32l.07,1.594a4.621,4.621,0,0,1,3.8-1.828q4.02,0,4.055,4.535V23H37.277V14.609a2.919,2.919,0,0,0-.627-2.027,2.512,2.512,0,0,0-1.916-.656,3.129,3.129,0,0,0-1.852.563,3.82,3.82,0,0,0-1.242,1.477V23H29.473V10.32Zm14.73,6.809-1.359,1.418V23H42.727V5h2.168V15.887l1.16-1.395L50,10.32h2.637l-4.934,5.3L53.215,23H50.672ZM57.234,23H55.066V10.32h2.168ZM54.891,6.957a1.294,1.294,0,0,1,.322-.891,1.21,1.21,0,0,1,.955-.363,1.229,1.229,0,0,1,.961.363,1.28,1.28,0,0,1,.328.891,1.238,1.238,0,0,1-.328.879,1.251,1.251,0,0,1-.961.352,1.232,1.232,0,0,1-.955-.352A1.251,1.251,0,0,1,54.891,6.957Zm7.863,3.363.07,1.594a4.621,4.621,0,0,1,3.8-1.828q4.02,0,4.055,4.535V23H68.508V14.609a2.919,2.919,0,0,0-.627-2.027,2.512,2.512,0,0,0-1.916-.656,3.129,3.129,0,0,0-1.852.563,3.82,3.82,0,0,0-1.242,1.477V23H60.7V10.32ZM73.43,16.555A7.452,7.452,0,0,1,74.8,11.838a4.727,4.727,0,0,1,7.254-.111l.105-1.406h1.98V22.7a5.158,5.158,0,0,1-1.459,3.879,5.384,5.384,0,0,1-3.92,1.418,6.521,6.521,0,0,1-2.684-.586,4.62,4.62,0,0,1-2-1.605L75.2,24.5a4.239,4.239,0,0,0,3.41,1.723,3.322,3.322,0,0,0,2.467-.891,3.4,3.4,0,0,0,.885-2.508v-1.09a4.456,4.456,0,0,1-3.551,1.5,4.331,4.331,0,0,1-3.6-1.793A7.835,7.835,0,0,1,73.43,16.555Zm2.18.246a5.685,5.685,0,0,0,.879,3.369,2.856,2.856,0,0,0,2.461,1.225,3.176,3.176,0,0,0,3.012-1.863V13.742a3.213,3.213,0,0,0-2.988-1.816,2.882,2.882,0,0,0-2.473,1.23A6.192,6.192,0,0,0,75.609,16.8Z" transform="translate(16 242) rotate(-90)" fill="#bbb"/><path d="M9.967,27H7.424V10.143l-5.1,1.873v-2.3L9.57,7h.4Z" transform="translate(64 151)" fill="#111"/><path d="M14.7,27H1.654V25.182l6.891-7.656A16.37,16.37,0,0,0,10.657,14.7a4.712,4.712,0,0,0,.581-2.249A3.572,3.572,0,0,0,10.295,9.9a3.3,3.3,0,0,0-2.516-1A3.906,3.906,0,0,0,4.847,9.972,4.1,4.1,0,0,0,3.8,12.959H1.271A5.871,5.871,0,0,1,3.042,8.516a6.563,6.563,0,0,1,4.737-1.7,6.307,6.307,0,0,1,4.389,1.456,4.967,4.967,0,0,1,1.613,3.876q0,2.939-3.746,7L4.7,24.936H14.7Z" transform="translate(64 233)" fill="#111"/><path d="M5.332,15.816h1.9a4.177,4.177,0,0,0,2.816-.943A3.152,3.152,0,0,0,11.074,12.4q0-3.5-3.486-3.5a3.626,3.626,0,0,0-2.618.937,3.278,3.278,0,0,0-.978,2.481H1.463A5.078,5.078,0,0,1,3.192,8.386a6.3,6.3,0,0,1,4.4-1.565A6.226,6.226,0,0,1,12,8.311a5.383,5.383,0,0,1,1.6,4.143,4.37,4.37,0,0,1-.841,2.516,5.077,5.077,0,0,1-2.29,1.818,4.892,4.892,0,0,1,2.536,1.723,4.784,4.784,0,0,1,.9,2.939,5.43,5.43,0,0,1-1.75,4.252A6.553,6.553,0,0,1,7.6,27.273a6.726,6.726,0,0,1-4.56-1.518A5.034,5.034,0,0,1,1.285,21.75H3.828a3.254,3.254,0,0,0,1.025,2.516,3.9,3.9,0,0,0,2.748.943,3.827,3.827,0,0,0,2.8-.957,3.688,3.688,0,0,0,.971-2.748,3.347,3.347,0,0,0-1.066-2.666,4.646,4.646,0,0,0-3.076-.957h-1.9Z" transform="translate(64 315)" fill="#111"/><path d="M12.332,20.314h2.762v2.064H12.332V27H9.789V22.379H.725v-1.49L9.639,7.094h2.693Zm-8.736,0H9.789V10.553l-.3.547Z" transform="translate(64 397)" fill="#111"/><path d="M2.816,17.02,3.828,7.094h10.2V9.432H5.975l-.6,5.428A6.424,6.424,0,0,1,8.7,14a5.492,5.492,0,0,1,4.32,1.8,7.046,7.046,0,0,1,1.6,4.86A6.8,6.8,0,0,1,12.954,25.5a6.054,6.054,0,0,1-4.642,1.771,6.292,6.292,0,0,1-4.307-1.463,5.839,5.839,0,0,1-1.9-4.047H4.5a4.017,4.017,0,0,0,1.217,2.577,3.783,3.783,0,0,0,2.6.868,3.413,3.413,0,0,0,2.769-1.2,5.03,5.03,0,0,0,1-3.322A4.616,4.616,0,0,0,11,17.478a3.7,3.7,0,0,0-2.892-1.21,4.17,4.17,0,0,0-2.6.725l-.67.547Z" transform="translate(64 478)" fill="#111"/><path d="M11.58,7.08V9.227h-.465a6.66,6.66,0,0,0-4.7,1.75,7.282,7.282,0,0,0-2.023,4.771,5.4,5.4,0,0,1,4.293-1.8,5.162,5.162,0,0,1,4.149,1.832,7.066,7.066,0,0,1,1.552,4.73,7.044,7.044,0,0,1-1.675,4.922,5.767,5.767,0,0,1-4.491,1.846,5.682,5.682,0,0,1-4.635-2.194A8.7,8.7,0,0,1,1.8,19.426v-.971q0-5.5,2.345-8.4T11.129,7.08ZM8.258,16.049a4.035,4.035,0,0,0-2.393.779,4.061,4.061,0,0,0-1.518,1.955v.93a6.53,6.53,0,0,0,1.107,3.965,3.319,3.319,0,0,0,2.762,1.5A3.216,3.216,0,0,0,10.9,23.924a5.219,5.219,0,0,0,.978-3.295,5.221,5.221,0,0,0-.991-3.315A3.177,3.177,0,0,0,8.258,16.049Z" transform="translate(64 561)" fill="#111"/><path d="M14.506,8.516,6.262,27H3.609L11.826,9.172H1.053V7.094H14.506Z" transform="translate(64 643)" fill="#111"/><path d="M13.727,12.289a4.623,4.623,0,0,1-.786,2.652,5.349,5.349,0,0,1-2.126,1.818,5.705,5.705,0,0,1,2.468,1.955,4.92,4.92,0,0,1,.909,2.912,5.2,5.2,0,0,1-1.743,4.115,6.7,6.7,0,0,1-4.587,1.531,6.667,6.667,0,0,1-4.6-1.538,5.226,5.226,0,0,1-1.729-4.108,5.067,5.067,0,0,1,.882-2.912,5.488,5.488,0,0,1,2.44-1.969,5.217,5.217,0,0,1-2.092-1.818A4.688,4.688,0,0,1,2,12.289,5.146,5.146,0,0,1,3.609,8.3,6.052,6.052,0,0,1,7.861,6.82,6.057,6.057,0,0,1,12.106,8.3,5.135,5.135,0,0,1,13.727,12.289Zm-2.064,9.283a3.669,3.669,0,0,0-1.06-2.721A3.758,3.758,0,0,0,7.834,17.8a3.692,3.692,0,0,0-2.741,1.039,3.711,3.711,0,0,0-1.032,2.734,3.533,3.533,0,0,0,1,2.666,3.857,3.857,0,0,0,2.8.971,3.846,3.846,0,0,0,2.789-.978A3.525,3.525,0,0,0,11.662,21.572ZM7.861,8.9a3.263,3.263,0,0,0-2.413.923,3.39,3.39,0,0,0-.923,2.509,3.374,3.374,0,0,0,.909,2.454,3.227,3.227,0,0,0,2.427.937,3.227,3.227,0,0,0,2.427-.937A3.374,3.374,0,0,0,11.2,12.33a3.375,3.375,0,0,0-.943-2.475A3.218,3.218,0,0,0,7.861,8.9Z" transform="translate(64 725)" fill="#111"/><path d="M11.348,18.25a6.189,6.189,0,0,1-1.894,1.518,5.137,5.137,0,0,1-2.413.574,5.3,5.3,0,0,1-3-.848,5.511,5.511,0,0,1-1.976-2.386,8.133,8.133,0,0,1-.7-3.4,8.287,8.287,0,0,1,.759-3.6A5.574,5.574,0,0,1,4.279,7.668,6.14,6.14,0,0,1,7.533,6.82a5.559,5.559,0,0,1,4.655,2.208,9.631,9.631,0,0,1,1.7,6.022v.738q0,5.811-2.3,8.483T4.662,27.014H4.17V24.867H4.7a6.963,6.963,0,0,0,4.813-1.63A7,7,0,0,0,11.348,18.25Zm-3.9,0A3.906,3.906,0,0,0,9.8,17.471a4.594,4.594,0,0,0,1.565-1.928V14.531a6.96,6.96,0,0,0-1.08-4.047,3.3,3.3,0,0,0-5.414-.28,5.273,5.273,0,0,0-1.012,3.37,5.488,5.488,0,0,0,.978,3.356A3.1,3.1,0,0,0,7.451,18.25Z" transform="translate(64 807)" fill="#111"/><path d="M9.967,27H7.424V10.143l-5.1,1.873v-2.3L9.57,7h.4Zm19.893-8.49q0,4.443-1.518,6.6a5.4,5.4,0,0,1-4.744,2.16,5.437,5.437,0,0,1-4.717-2.112q-1.531-2.112-1.586-6.31V15.475q0-4.389,1.518-6.521A5.439,5.439,0,0,1,23.57,6.82,5.488,5.488,0,0,1,28.3,8.878q1.518,2.058,1.559,6.351ZM27.33,15.051a9.268,9.268,0,0,0-.9-4.683A3.106,3.106,0,0,0,23.57,8.9a3.065,3.065,0,0,0-2.83,1.463,9.049,9.049,0,0,0-.916,4.5v4.047a9.417,9.417,0,0,0,.937,4.765A3.1,3.1,0,0,0,23.6,25.209,3.057,3.057,0,0,0,26.38,23.76a9.076,9.076,0,0,0,.95-4.566Z" transform="translate(48 889)" fill="#111"/><line x2="2152" transform="translate(0.5 984.5)" fill="none" stroke="#e3e3e3" stroke-width="2"/><path d="M14.531,17.586a6.277,6.277,0,0,1-2,4.178,6.548,6.548,0,0,1-4.471,1.471,6.012,6.012,0,0,1-4.846-2.168,8.722,8.722,0,0,1-1.822-5.8V13.625a9.722,9.722,0,0,1,.85-4.184A6.346,6.346,0,0,1,4.652,6.67,6.705,6.705,0,0,1,8.262,5.7a6.165,6.165,0,0,1,4.359,1.518,6.353,6.353,0,0,1,1.91,4.2H12.27A4.9,4.9,0,0,0,11,8.46a3.847,3.847,0,0,0-2.736-.917,4.026,4.026,0,0,0-3.381,1.6,7.323,7.323,0,0,0-1.225,4.539v1.654a7.527,7.527,0,0,0,1.16,4.422,3.749,3.749,0,0,0,3.246,1.642,4.33,4.33,0,0,0,2.877-.85,4.715,4.715,0,0,0,1.33-2.959Zm14.52-9.809H23.566V23H21.328V7.777H15.855V5.938h13.2ZM37.84,16.1H33.832V23H31.57V5.938h5.648A6.686,6.686,0,0,1,41.654,7.25a4.722,4.722,0,0,1,1.553,3.82,4.593,4.593,0,0,1-.861,2.777,5.142,5.142,0,0,1-2.4,1.77l4.008,7.242V23H41.543Zm-4.008-1.84h3.457a3.9,3.9,0,0,0,2.666-.869,2.938,2.938,0,0,0,.99-2.325A3.094,3.094,0,0,0,40,8.634a4,4,0,0,0-2.725-.857H33.832Z" transform="translate(88 1056)" fill="#bbb"/><g transform="translate(2)"><line y2="32" transform="translate(110 968)" fill="none" stroke="#e3e3e3" stroke-width="2"/><path d="M24.556,18.51q0,4.443-1.518,6.6a5.4,5.4,0,0,1-4.744,2.16,5.437,5.437,0,0,1-4.717-2.112q-1.531-2.112-1.586-6.31V15.475q0-4.389,1.518-6.521A5.439,5.439,0,0,1,18.267,6.82,5.488,5.488,0,0,1,23,8.878q1.518,2.058,1.559,6.351Zm-2.529-3.459a9.268,9.268,0,0,0-.9-4.683A3.106,3.106,0,0,0,18.267,8.9a3.065,3.065,0,0,0-2.83,1.463,9.049,9.049,0,0,0-.916,4.5v4.047a9.417,9.417,0,0,0,.937,4.765,3.1,3.1,0,0,0,2.837,1.538,3.057,3.057,0,0,0,2.782-1.449,9.076,9.076,0,0,0,.95-4.566Zm12.482-4.129A4.039,4.039,0,0,1,35.65,7.969a4.289,4.289,0,0,1,5.879.007A4.179,4.179,0,0,1,42.657,11v.971a3.987,3.987,0,0,1-1.142,2.946,3.936,3.936,0,0,1-2.905,1.142,4.022,4.022,0,0,1-2.939-1.142,4.071,4.071,0,0,1-1.162-3.042ZM36.4,11.969A2.587,2.587,0,0,0,37,13.73a2.03,2.03,0,0,0,1.613.692,1.99,1.99,0,0,0,1.565-.671,2.672,2.672,0,0,0,.595-1.836v-1a2.652,2.652,0,0,0-.588-1.768,2.18,2.18,0,0,0-3.2,0,2.735,2.735,0,0,0-.588,1.823ZM44.2,22.119a4.016,4.016,0,0,1,1.142-2.946,4.318,4.318,0,0,1,5.872-.007,4.121,4.121,0,0,1,1.148,3.049v.971a4.016,4.016,0,0,1-1.142,2.946A3.928,3.928,0,0,1,48.3,27.287a4.022,4.022,0,0,1-2.939-1.142A4.071,4.071,0,0,1,44.2,23.1Zm1.887,1.061a2.607,2.607,0,0,0,.6,1.774,2.03,2.03,0,0,0,1.613.692,1.976,1.976,0,0,0,1.572-.678,2.718,2.718,0,0,0,.588-1.843V22.111a2.6,2.6,0,0,0-.595-1.768,2.186,2.186,0,0,0-3.172-.007,2.638,2.638,0,0,0-.608,1.829Zm-6.9,2.316-1.436-.9L47.47,9.035l1.436.9Z" transform="translate(80 1008)" fill="#888"/></g><g transform="translate(354)"><line y2="32" transform="translate(158 968)" fill="none" stroke="#e3e3e3" stroke-width="2"/><path d="M12.524,27H9.981V10.143l-5.1,1.873v-2.3L12.128,7h.4Zm19.893-8.49q0,4.443-1.518,6.6a5.4,5.4,0,0,1-4.744,2.16,5.437,5.437,0,0,1-4.717-2.112q-1.531-2.112-1.586-6.31V15.475q0-4.389,1.518-6.521A5.439,5.439,0,0,1,26.128,6.82a5.488,5.488,0,0,1,4.73,2.058q1.518,2.058,1.559,6.351Zm-2.529-3.459a9.268,9.268,0,0,0-.9-4.683A3.106,3.106,0,0,0,26.128,8.9a3.065,3.065,0,0,0-2.83,1.463,9.049,9.049,0,0,0-.916,4.5v4.047a9.417,9.417,0,0,0,.937,4.765,3.1,3.1,0,0,0,2.837,1.538,3.057,3.057,0,0,0,2.782-1.449,9.076,9.076,0,0,0,.95-4.566ZM42.37,10.922a4.039,4.039,0,0,1,1.142-2.953,4.289,4.289,0,0,1,5.879.007A4.179,4.179,0,0,1,50.519,11v.971a3.987,3.987,0,0,1-1.142,2.946,3.936,3.936,0,0,1-2.905,1.142,4.022,4.022,0,0,1-2.939-1.142,4.071,4.071,0,0,1-1.162-3.042Zm1.887,1.047a2.587,2.587,0,0,0,.6,1.761,2.03,2.03,0,0,0,1.613.692,1.99,1.99,0,0,0,1.565-.671,2.672,2.672,0,0,0,.595-1.836v-1a2.652,2.652,0,0,0-.588-1.768,2.18,2.18,0,0,0-3.2,0,2.735,2.735,0,0,0-.588,1.823Zm7.807,10.15a4.016,4.016,0,0,1,1.142-2.946,4.318,4.318,0,0,1,5.872-.007,4.121,4.121,0,0,1,1.148,3.049v.971a4.016,4.016,0,0,1-1.142,2.946,3.928,3.928,0,0,1-2.919,1.155,4.022,4.022,0,0,1-2.939-1.142A4.071,4.071,0,0,1,52.063,23.1ZM53.95,23.18a2.607,2.607,0,0,0,.6,1.774,2.03,2.03,0,0,0,1.613.692,1.976,1.976,0,0,0,1.572-.678,2.718,2.718,0,0,0,.588-1.843V22.111a2.6,2.6,0,0,0-.595-1.768,2.186,2.186,0,0,0-3.172-.007,2.638,2.638,0,0,0-.608,1.829Zm-6.9,2.316-1.436-.9L55.331,9.035l1.436.9Z" transform="translate(126 1008)" fill="#888"/></g><g transform="translate(706)"><line y2="32" transform="translate(206 968)" fill="none" stroke="#e3e3e3" stroke-width="2"/><path d="M17.255,27H4.212V25.182L11.1,17.525A16.37,16.37,0,0,0,13.215,14.7a4.712,4.712,0,0,0,.581-2.249A3.572,3.572,0,0,0,12.853,9.9a3.3,3.3,0,0,0-2.516-1A3.906,3.906,0,0,0,7.4,9.972a4.1,4.1,0,0,0-1.046,2.987H3.829A5.871,5.871,0,0,1,5.6,8.516a6.563,6.563,0,0,1,4.737-1.7,6.307,6.307,0,0,1,4.389,1.456,4.967,4.967,0,0,1,1.613,3.876q0,2.939-3.746,7L7.261,24.936h9.994Zm15.162-8.49q0,4.443-1.518,6.6a5.4,5.4,0,0,1-4.744,2.16,5.437,5.437,0,0,1-4.717-2.112q-1.531-2.112-1.586-6.31V15.475q0-4.389,1.518-6.521A5.439,5.439,0,0,1,26.128,6.82a5.488,5.488,0,0,1,4.73,2.058q1.518,2.058,1.559,6.351Zm-2.529-3.459a9.268,9.268,0,0,0-.9-4.683A3.106,3.106,0,0,0,26.128,8.9a3.065,3.065,0,0,0-2.83,1.463,9.049,9.049,0,0,0-.916,4.5v4.047a9.417,9.417,0,0,0,.937,4.765,3.1,3.1,0,0,0,2.837,1.538,3.057,3.057,0,0,0,2.782-1.449,9.076,9.076,0,0,0,.95-4.566ZM42.37,10.922a4.039,4.039,0,0,1,1.142-2.953,4.289,4.289,0,0,1,5.879.007A4.179,4.179,0,0,1,50.519,11v.971a3.987,3.987,0,0,1-1.142,2.946,3.936,3.936,0,0,1-2.905,1.142,4.022,4.022,0,0,1-2.939-1.142,4.071,4.071,0,0,1-1.162-3.042Zm1.887,1.047a2.587,2.587,0,0,0,.6,1.761,2.03,2.03,0,0,0,1.613.692,1.99,1.99,0,0,0,1.565-.671,2.672,2.672,0,0,0,.595-1.836v-1a2.652,2.652,0,0,0-.588-1.768,2.18,2.18,0,0,0-3.2,0,2.735,2.735,0,0,0-.588,1.823Zm7.807,10.15a4.016,4.016,0,0,1,1.142-2.946,4.318,4.318,0,0,1,5.872-.007,4.121,4.121,0,0,1,1.148,3.049v.971a4.016,4.016,0,0,1-1.142,2.946,3.928,3.928,0,0,1-2.919,1.155,4.022,4.022,0,0,1-2.939-1.142A4.071,4.071,0,0,1,52.063,23.1ZM53.95,23.18a2.607,2.607,0,0,0,.6,1.774,2.03,2.03,0,0,0,1.613.692,1.976,1.976,0,0,0,1.572-.678,2.718,2.718,0,0,0,.588-1.843V22.111a2.6,2.6,0,0,0-.595-1.768,2.186,2.186,0,0,0-3.172-.007,2.638,2.638,0,0,0-.608,1.829Zm-6.9,2.316-1.436-.9L55.331,9.035l1.436.9Z" transform="translate(176 1008)" fill="#888"/></g><g transform="translate(1058)"><line y2="32" transform="translate(254 968)" fill="none" stroke="#e3e3e3" stroke-width="2"/><path d="M7.89,15.816h1.9a4.177,4.177,0,0,0,2.816-.943A3.152,3.152,0,0,0,13.632,12.4q0-3.5-3.486-3.5a3.626,3.626,0,0,0-2.618.937,3.278,3.278,0,0,0-.978,2.481H4.021A5.078,5.078,0,0,1,5.75,8.386a6.3,6.3,0,0,1,4.4-1.565,6.226,6.226,0,0,1,4.416,1.49,5.383,5.383,0,0,1,1.6,4.143,4.37,4.37,0,0,1-.841,2.516,5.077,5.077,0,0,1-2.29,1.818,4.892,4.892,0,0,1,2.536,1.723,4.784,4.784,0,0,1,.9,2.939,5.43,5.43,0,0,1-1.75,4.252,6.553,6.553,0,0,1-4.553,1.572A6.726,6.726,0,0,1,5.6,25.756,5.034,5.034,0,0,1,3.843,21.75H6.386a3.254,3.254,0,0,0,1.025,2.516,3.9,3.9,0,0,0,2.748.943,3.827,3.827,0,0,0,2.8-.957,3.688,3.688,0,0,0,.971-2.748,3.347,3.347,0,0,0-1.066-2.666,4.646,4.646,0,0,0-3.076-.957H7.89ZM32.417,18.51q0,4.443-1.518,6.6a5.4,5.4,0,0,1-4.744,2.16,5.437,5.437,0,0,1-4.717-2.112q-1.531-2.112-1.586-6.31V15.475q0-4.389,1.518-6.521A5.439,5.439,0,0,1,26.128,6.82a5.488,5.488,0,0,1,4.73,2.058q1.518,2.058,1.559,6.351Zm-2.529-3.459a9.268,9.268,0,0,0-.9-4.683A3.106,3.106,0,0,0,26.128,8.9a3.065,3.065,0,0,0-2.83,1.463,9.049,9.049,0,0,0-.916,4.5v4.047a9.417,9.417,0,0,0,.937,4.765,3.1,3.1,0,0,0,2.837,1.538,3.057,3.057,0,0,0,2.782-1.449,9.076,9.076,0,0,0,.95-4.566ZM42.37,10.922a4.039,4.039,0,0,1,1.142-2.953,4.289,4.289,0,0,1,5.879.007A4.179,4.179,0,0,1,50.519,11v.971a3.987,3.987,0,0,1-1.142,2.946,3.936,3.936,0,0,1-2.905,1.142,4.022,4.022,0,0,1-2.939-1.142,4.071,4.071,0,0,1-1.162-3.042Zm1.887,1.047a2.587,2.587,0,0,0,.6,1.761,2.03,2.03,0,0,0,1.613.692,1.99,1.99,0,0,0,1.565-.671,2.672,2.672,0,0,0,.595-1.836v-1a2.652,2.652,0,0,0-.588-1.768,2.18,2.18,0,0,0-3.2,0,2.735,2.735,0,0,0-.588,1.823Zm7.807,10.15a4.016,4.016,0,0,1,1.142-2.946,4.318,4.318,0,0,1,5.872-.007,4.121,4.121,0,0,1,1.148,3.049v.971a4.016,4.016,0,0,1-1.142,2.946,3.928,3.928,0,0,1-2.919,1.155,4.022,4.022,0,0,1-2.939-1.142A4.071,4.071,0,0,1,52.063,23.1ZM53.95,23.18a2.607,2.607,0,0,0,.6,1.774,2.03,2.03,0,0,0,1.613.692,1.976,1.976,0,0,0,1.572-.678,2.718,2.718,0,0,0,.588-1.843V22.111a2.6,2.6,0,0,0-.595-1.768,2.186,2.186,0,0,0-3.172-.007,2.638,2.638,0,0,0-.608,1.829Zm-6.9,2.316-1.436-.9L55.331,9.035l1.436.9Z" transform="translate(224 1008)" fill="#888"/></g><g transform="translate(1458)"><line y2="32" transform="translate(254 968)" fill="none" stroke="#e3e3e3" stroke-width="2"/><path d="M14.89,20.314h2.762v2.064H14.89V27H12.347V22.379H3.282v-1.49L12.2,7.094H14.89Zm-8.736,0h6.193V10.553l-.3.547Zm26.264-1.8q0,4.443-1.518,6.6a5.4,5.4,0,0,1-4.744,2.16,5.437,5.437,0,0,1-4.717-2.112q-1.531-2.112-1.586-6.31V15.475q0-4.389,1.518-6.521A5.439,5.439,0,0,1,26.128,6.82a5.488,5.488,0,0,1,4.73,2.058q1.518,2.058,1.559,6.351Zm-2.529-3.459a9.268,9.268,0,0,0-.9-4.683A3.106,3.106,0,0,0,26.128,8.9a3.065,3.065,0,0,0-2.83,1.463,9.049,9.049,0,0,0-.916,4.5v4.047a9.417,9.417,0,0,0,.937,4.765,3.1,3.1,0,0,0,2.837,1.538,3.057,3.057,0,0,0,2.782-1.449,9.076,9.076,0,0,0,.95-4.566ZM42.37,10.922a4.039,4.039,0,0,1,1.142-2.953,4.289,4.289,0,0,1,5.879.007A4.179,4.179,0,0,1,50.519,11v.971a3.987,3.987,0,0,1-1.142,2.946,3.936,3.936,0,0,1-2.905,1.142,4.022,4.022,0,0,1-2.939-1.142,4.071,4.071,0,0,1-1.162-3.042Zm1.887,1.047a2.587,2.587,0,0,0,.6,1.761,2.03,2.03,0,0,0,1.613.692,1.99,1.99,0,0,0,1.565-.671,2.672,2.672,0,0,0,.595-1.836v-1a2.652,2.652,0,0,0-.588-1.768,2.18,2.18,0,0,0-3.2,0,2.735,2.735,0,0,0-.588,1.823Zm7.807,10.15a4.016,4.016,0,0,1,1.142-2.946,4.318,4.318,0,0,1,5.872-.007,4.121,4.121,0,0,1,1.148,3.049v.971a4.016,4.016,0,0,1-1.142,2.946,3.928,3.928,0,0,1-2.919,1.155,4.022,4.022,0,0,1-2.939-1.142A4.071,4.071,0,0,1,52.063,23.1ZM53.95,23.18a2.607,2.607,0,0,0,.6,1.774,2.03,2.03,0,0,0,1.613.692,1.976,1.976,0,0,0,1.572-.678,2.718,2.718,0,0,0,.588-1.843V22.111a2.6,2.6,0,0,0-.595-1.768,2.186,2.186,0,0,0-3.172-.007,2.638,2.638,0,0,0-.608,1.829Zm-6.9,2.316-1.436-.9L55.331,9.035l1.436.9Z" transform="translate(224 1008)" fill="#888"/></g></svg>